<?xml version="1.0" encoding="UTF-8" standalone="no"?>
<!-- Created with Inkscape (http://www.inkscape.org/) -->

<svg
   width="124.4564mm"
   height="124.28698mm"
   viewBox="0 0 124.4564 124.28698"
   version="1.1"
   id="svg5"
   xmlns="http://www.w3.org/2000/svg"
   xmlns:svg="http://www.w3.org/2000/svg">
  <defs
     id="defs2" />
  <g
     id="layer1"
     transform="translate(-32.465718,-83.222189)">
    <g
       id="g24"
       transform="matrix(0.96276564,0,0,1.0020424,1.2088402,-0.42382318)">
      <path
         d="M 161.73539,83.475525 C 114.74087,100.47818 67.015364,77.264125 37.84731,121.19777 l -0.0095,1.6123 h 8.538812 c 0.174298,-0.008 0.340717,-0.0356 0.518195,-0.0356 H 60.5309 72.637128 c 6.080184,0 10.975218,4.78024 10.975218,10.71769 v 0.59531 h 24.647424 c 7.55224,0 13.63208,5.93745 13.63208,13.31237 v 17.77772 25.85682 c 0,0.0288 -0.007,0.0668 -0.008,0.0961 v 7.76232 l 2.82579,-2.94917 C 145.56413,165.64575 138.90722,110.17076 161.735,83.475525 Z"
         style="fill:#ff6600;stroke-width:0.26953"
         id="path23" />
      <path
         d="M 140.69008,101.37395 C 110.67465,112.36399 80.223533,98.675154 60.447733,122.93542 H 72.55396 c 6.08022,0 10.975217,4.78021 10.975217,10.7177 v 0.59531 h 24.647413 c 7.5523,0 13.63209,5.93738 13.63209,13.31236 v 17.77773 c 7.05951,-20.98507 6.2947,-49.06865 18.8814,-63.96457 z"
         style="fill:#ffcc00;stroke-width:0.182219"
         id="path14" />
      <path
         d="m 43.440936,125.93689 c -6.080141,0 -10.975217,4.78027 -10.975217,10.71769 v 4.17701 9.73067 10.50427 33.13028 c 0,7.37488 6.079884,13.31236 13.632076,13.31236 h 53.380953 5.327092 c 7.5522,0 13.63208,-5.93748 13.63208,-13.31236 v -1.3963 -7.76232 -16.6982 -17.77773 c 0,-7.37488 -6.07988,-13.31237 -13.63208,-13.31237 h -7.428601 -8.538814 -8.680004 v -0.59531 c 0,-5.93742 -4.895072,-10.71769 -10.975217,-10.71769 H 57.076977 Z"
         style="fill:#ad6248;stroke-width:0.182219"
         id="path22" />
    </g>
  </g>
</svg>
